<svg width="1019" height="1019" viewBox="0 0 1019 1019" fill="none" xmlns="http://www.w3.org/2000/svg">
<g opacity="0.5">
<path d="M714.508 231.002L597.002 299.867" stroke="#B2B2B2"/>
<path d="M645.644 113.497L528.138 182.361" stroke="url(#paint0_linear_115103_646)"/>
<path d="M597.002 299.867L528.138 182.361" stroke="#B2B2B2"/>
<path d="M714.508 231.002L645.644 113.496" stroke="#B2B2B2"/>
<path d="M597.002 299.867L440.328 391.686" stroke="#B2B2B2"/>
<path d="M528.138 182.361L371.463 274.18" stroke="url(#paint1_linear_115103_646)"/>
<path d="M440.328 391.686L371.463 274.18" stroke="#B2B2B2"/>
<path d="M597.002 299.867L528.138 182.361" stroke="url(#paint2_linear_115103_646)"/>
<path d="M97.2831 434.864L214.789 366" stroke="#B2B2B2"/>
<path d="M166.147 552.37L283.653 483.506" stroke="#B2B2B2"/>
<path d="M214.789 366L283.653 483.506" stroke="#B2B2B2"/>
<path d="M97.2831 434.864L166.147 552.37" stroke="#B2B2B2"/>
<path d="M214.789 366L371.463 274.181" stroke="url(#paint3_linear_115103_646)"/>
<path d="M283.653 483.506L440.328 391.686" stroke="#B2B2B2"/>
<path d="M214.789 366L283.653 483.506" stroke="#B2B2B2"/>
<path d="M440.328 391.686L557.833 322.822" stroke="#B2B2B2"/>
<path d="M509.192 509.192L626.698 440.328" stroke="#B2B2B2"/>
<path d="M557.834 322.822L626.698 440.328" stroke="#B2B2B2"/>
<path d="M557.833 322.822L714.508 231.003" stroke="#B2B2B2"/>
<path d="M626.698 440.328L783.372 348.509" stroke="#B2B2B2"/>
<path d="M714.508 231.003L783.372 348.508" stroke="url(#paint4_linear_115103_646)"/>
<path d="M557.833 322.822L626.698 440.328" stroke="#B2B2B2"/>
<path d="M509.192 509.192L391.686 578.056" stroke="#B2B2B2"/>
<path d="M440.328 391.686L322.822 460.551" stroke="#B2B2B2"/>
<path d="M391.687 578.056L322.822 460.551" stroke="#B2B2B2"/>
<path d="M391.686 578.056L235.012 669.876" stroke="#B2B2B2"/>
<path d="M322.822 460.55L166.148 552.37" stroke="#B2B2B2"/>
<path d="M235.012 669.876L166.148 552.37" stroke="url(#paint5_linear_115103_646)"/>
<path d="M391.686 578.056L322.822 460.551" stroke="#B2B2B2"/>
<path d="M852.234 466.014L734.728 534.879" stroke="#B2B2B2"/>
<path d="M783.37 348.508L665.864 417.373" stroke="#B2B2B2"/>
<path d="M734.729 534.879L665.864 417.373" stroke="#B2B2B2"/>
<path d="M852.234 466.014L783.37 348.508" stroke="#B2B2B2"/>
<path d="M734.728 534.879L578.054 626.698" stroke="#B2B2B2"/>
<path d="M665.864 417.373L509.189 509.192" stroke="#B2B2B2"/>
<path d="M578.054 626.698L509.189 509.192" stroke="#B2B2B2"/>
<path d="M734.728 534.879L665.864 417.373" stroke="url(#paint6_linear_115103_646)"/>
<path d="M235.009 669.876L352.515 601.011" stroke="#B2B2B2"/>
<path d="M303.873 787.381L421.379 718.517" stroke="#B2B2B2"/>
<path d="M352.515 601.011L421.379 718.517" stroke="#B2B2B2"/>
<path d="M235.009 669.876L303.873 787.381" stroke="#B2B2B2"/>
<path d="M352.515 601.011L509.19 509.192" stroke="url(#paint7_linear_115103_646)"/>
<path d="M421.38 718.517L578.054 626.697" stroke="#B2B2B2"/>
<path d="M352.515 601.011L421.38 718.517" stroke="#B2B2B2"/>
<path d="M578.053 626.698L695.559 557.833" stroke="#B2B2B2"/>
<path d="M646.918 744.204L764.424 675.339" stroke="#B2B2B2"/>
<path d="M695.559 557.833L764.424 675.339" stroke="#B2B2B2"/>
<path d="M695.56 557.833L852.234 466.014" stroke="url(#paint8_linear_115103_646)"/>
<path d="M764.424 675.339L921.098 583.52" stroke="url(#paint9_linear_115103_646)"/>
<path d="M852.234 466.014L921.098 583.52" stroke="#B2B2B2"/>
<path d="M695.56 557.833L764.424 675.339" stroke="#B2B2B2"/>
<path d="M646.918 744.204L529.412 813.068" stroke="#B2B2B2"/>
<path d="M578.054 626.698L460.548 695.562" stroke="#B2B2B2"/>
<path d="M529.412 813.068L460.548 695.562" stroke="#B2B2B2"/>
<path d="M529.412 813.068L372.738 904.887" stroke="#B2B2B2"/>
<path d="M460.548 695.562L303.873 787.381" stroke="#B2B2B2"/>
<path d="M372.738 904.887L303.873 787.382" stroke="#B2B2B2"/>
<path d="M529.412 813.068L460.548 695.562" stroke="url(#paint10_linear_115103_646)"/>
</g>
<defs>
<linearGradient id="paint0_linear_115103_646" x1="621.652" y1="107.235" x2="562.83" y2="160.097" gradientUnits="userSpaceOnUse">
<stop stop-color="#13B0F5"/>
<stop offset="1" stop-color="#CA24B4"/>
</linearGradient>
<linearGradient id="paint1_linear_115103_646" x1="527.722" y1="183.954" x2="427.61" y2="316.567" gradientUnits="userSpaceOnUse">
<stop stop-color="#E70FAA"/>
<stop offset="1" stop-color="#13B0F5"/>
</linearGradient>
<linearGradient id="paint2_linear_115103_646" x1="603.264" y1="275.875" x2="550.402" y2="217.053" gradientUnits="userSpaceOnUse">
<stop stop-color="#13B0F5"/>
<stop offset="1" stop-color="#CA24B4"/>
</linearGradient>
<linearGradient id="paint3_linear_115103_646" x1="246.778" y1="374.349" x2="325.208" y2="303.866" gradientUnits="userSpaceOnUse">
<stop stop-color="#00C0FD"/>
<stop offset="0.421875" stop-color="#E70FAA"/>
<stop offset="1" stop-color="#00C0FD"/>
</linearGradient>
<linearGradient id="paint4_linear_115103_646" x1="708.246" y1="254.994" x2="761.108" y2="313.816" gradientUnits="userSpaceOnUse">
<stop stop-color="#13B0F5"/>
<stop offset="0.0001" stop-color="#505685"/>
<stop offset="0.317708" stop-color="#CA24B4"/>
<stop offset="1" stop-color="#13B0F5"/>
</linearGradient>
<linearGradient id="paint5_linear_115103_646" x1="235.012" y1="669.876" x2="134.428" y2="594.956" gradientUnits="userSpaceOnUse">
<stop stop-color="#8E34FF"/>
<stop offset="0.494792" stop-color="#CA24B4"/>
<stop offset="1" stop-color="#8E34FF"/>
</linearGradient>
<linearGradient id="paint6_linear_115103_646" x1="740.99" y1="510.887" x2="688.128" y2="452.065" gradientUnits="userSpaceOnUse">
<stop stop-color="#CA24B4"/>
<stop offset="0.234375" stop-color="#13B0F5"/>
</linearGradient>
<linearGradient id="paint7_linear_115103_646" x1="392.584" y1="577.866" x2="465.958" y2="479.806" gradientUnits="userSpaceOnUse">
<stop stop-color="#13B0F5"/>
<stop offset="0.75" stop-color="#CA24B4"/>
<stop offset="1" stop-color="#13B0F5"/>
</linearGradient>
<linearGradient id="paint8_linear_115103_646" x1="727.549" y1="566.182" x2="805.978" y2="495.699" gradientUnits="userSpaceOnUse">
<stop stop-color="#8643DC"/>
<stop offset="0.0001" stop-color="#8643DC"/>
<stop offset="0.317708" stop-color="#CA24B4"/>
<stop offset="1" stop-color="#8643DC"/>
</linearGradient>
<linearGradient id="paint9_linear_115103_646" x1="796.413" y1="683.688" x2="874.842" y2="613.205" gradientUnits="userSpaceOnUse">
<stop stop-color="#8643DC"/>
<stop offset="0.0001" stop-color="#8643DC"/>
<stop offset="0.317708" stop-color="#CA24B4"/>
<stop offset="1" stop-color="#8643DC"/>
</linearGradient>
<linearGradient id="paint10_linear_115103_646" x1="529.412" y1="813.068" x2="428.828" y2="738.148" gradientUnits="userSpaceOnUse">
<stop stop-color="#13B0F5"/>
<stop offset="0.0582928" stop-color="#CA24B4"/>
<stop offset="1" stop-color="#13B0F5"/>
</linearGradient>
</defs>
</svg>
