<svg fill="none" xmlns="http://www.w3.org/2000/svg">
<!-- logo -->
<g id="logo">
    <path d="M5.13001 17.1001H11.85V21.0601H1.47298e-05V5.79357e-05H5.13001V17.1001ZM21.9169 21.3001C20.2769 21.3001 18.7969 20.9501 17.4769 20.2501C16.1769 19.5501 15.1469 18.5501 14.3869 17.2501C13.6469 15.9501 13.2769 14.4301 13.2769 12.6901C13.2769 10.9701 13.6569 9.46006 14.4169 8.16006C15.1769 6.84006 16.2169 5.83006 17.5369 5.13006C18.8569 4.43006 20.3369 4.08006 21.9769 4.08006C23.6169 4.08006 25.0969 4.43006 26.4169 5.13006C27.7369 5.83006 28.7769 6.84006 29.5369 8.16006C30.2969 9.46006 30.6769 10.9701 30.6769 12.6901C30.6769 14.4101 30.2869 15.9301 29.5069 17.2501C28.7469 18.5501 27.6969 19.5501 26.3569 20.2501C25.0369 20.9501 23.5569 21.3001 21.9169 21.3001ZM21.9169 16.8601C22.8969 16.8601 23.7269 16.5001 24.4069 15.7801C25.1069 15.0601 25.4569 14.0301 25.4569 12.6901C25.4569 11.3501 25.1169 10.3201 24.4369 9.60006C23.7769 8.88006 22.9569 8.52006 21.9769 8.52006C20.9769 8.52006 20.1469 8.88006 19.4869 9.60006C18.8269 10.3001 18.4969 11.3301 18.4969 12.6901C18.4969 14.0301 18.8169 15.0601 19.4569 15.7801C20.1169 16.5001 20.9369 16.8601 21.9169 16.8601ZM39.7585 4.08006C40.9385 4.08006 41.9685 4.32006 42.8485 4.80006C43.7485 5.28006 44.4385 5.91006 44.9185 6.69006V4.32006H50.0485V21.0301C50.0485 22.5701 49.7385 23.9601 49.1185 25.2001C48.5185 26.4601 47.5885 27.4601 46.3285 28.2001C45.0885 28.9401 43.5385 29.3101 41.6785 29.3101C39.1985 29.3101 37.1885 28.7201 35.6485 27.5401C34.1085 26.3801 33.2285 24.8001 33.0085 22.8001H38.0785C38.2385 23.4401 38.6185 23.9401 39.2185 24.3001C39.8185 24.6801 40.5585 24.8701 41.4385 24.8701C42.4985 24.8701 43.3385 24.5601 43.9585 23.9401C44.5985 23.3401 44.9185 22.3701 44.9185 21.0301V18.6601C44.4185 19.4401 43.7285 20.0801 42.8485 20.5801C41.9685 21.0601 40.9385 21.3001 39.7585 21.3001C38.3785 21.3001 37.1285 20.9501 36.0085 20.2501C34.8885 19.5301 33.9985 18.5201 33.3385 17.2201C32.6985 15.9001 32.3785 14.3801 32.3785 12.6601C32.3785 10.9401 32.6985 9.43006 33.3385 8.13006C33.9985 6.83006 34.8885 5.83006 36.0085 5.13006C37.1285 4.43006 38.3785 4.08006 39.7585 4.08006ZM44.9185 12.6901C44.9185 11.4101 44.5585 10.4001 43.8385 9.66006C43.1385 8.92006 42.2785 8.55006 41.2585 8.55006C40.2385 8.55006 39.3685 8.92006 38.6485 9.66006C37.9485 10.3801 37.5985 11.3801 37.5985 12.6601C37.5985 13.9401 37.9485 14.9601 38.6485 15.7201C39.3685 16.4601 40.2385 16.8301 41.2585 16.8301C42.2785 16.8301 43.1385 16.4601 43.8385 15.7201C44.5585 14.9801 44.9185 13.9701 44.9185 12.6901ZM61.3798 21.3001C59.7398 21.3001 58.2598 20.9501 56.9398 20.2501C55.6398 19.5501 54.6098 18.5501 53.8498 17.2501C53.1098 15.9501 52.7398 14.4301 52.7398 12.6901C52.7398 10.9701 53.1198 9.46006 53.8798 8.16006C54.6398 6.84006 55.6798 5.83006 56.9998 5.13006C58.3198 4.43006 59.7998 4.08006 61.4398 4.08006C63.0798 4.08006 64.5598 4.43006 65.8798 5.13006C67.1998 5.83006 68.2398 6.84006 68.9998 8.16006C69.7598 9.46006 70.1398 10.9701 70.1398 12.6901C70.1398 14.4101 69.7498 15.9301 68.9698 17.2501C68.2098 18.5501 67.1598 19.5501 65.8198 20.2501C64.4998 20.9501 63.0198 21.3001 61.3798 21.3001ZM61.3798 16.8601C62.3598 16.8601 63.1898 16.5001 63.8698 15.7801C64.5698 15.0601 64.9198 14.0301 64.9198 12.6901C64.9198 11.3501 64.5798 10.3201 63.8998 9.60006C63.2398 8.88006 62.4198 8.52006 61.4398 8.52006C60.4398 8.52006 59.6098 8.88006 58.9498 9.60006C58.2898 10.3001 57.9598 11.3301 57.9598 12.6901C57.9598 14.0301 58.2798 15.0601 58.9198 15.7801C59.5798 16.5001 60.3998 16.8601 61.3798 16.8601Z" fill="currentColor"/>
</g>
<!-- buttons -->
<g id="envelope">
    <path d="M16.875 0H0.625C0.279297 0 0 0.279297 0 0.625V13.125C0 13.4707 0.279297 13.75 0.625 13.75H16.875C17.2207 13.75 17.5 13.4707 17.5 13.125V0.625C17.5 0.279297 17.2207 0 16.875 0ZM15.2969 2.12695L9.13477 6.92188C8.98242 7.04102 8.76953 7.04102 8.61719 6.92188L2.45312 2.12695C2.42989 2.10902 2.41285 2.08427 2.40438 2.05616C2.39592 2.02806 2.39647 1.99801 2.40594 1.97023C2.41542 1.94245 2.43335 1.91833 2.45722 1.90125C2.48109 1.88418 2.50971 1.875 2.53906 1.875H15.2109C15.2403 1.875 15.2689 1.88418 15.2928 1.90125C15.3167 1.91833 15.3346 1.94245 15.3441 1.97023C15.3535 1.99801 15.3541 2.02806 15.3456 2.05616C15.3372 2.08427 15.3201 2.10902 15.2969 2.12695Z" fill="currentColor"/>
</g>
<g id="download">
<path d="M9.33356 11L12.6669 7.66667M9.33356 11V1V11ZM9.33356 11L6.00023 7.66667L9.33356 11Z" stroke="currentColor" stroke-width="2" stroke-linecap="round" stroke-linejoin="round"/>
<path d="M1.00023 12.6667L1.51773 14.7376C1.60786 15.0981 1.81592 15.4182 2.10884 15.647C2.40176 15.8757 2.76274 16 3.1344 16.0001H15.5327C15.9044 16 16.2654 15.8757 16.5583 15.647C16.8512 15.4182 17.0593 15.0981 17.1494 14.7376L17.6669 12.6667" stroke="currentColor" stroke-width="2" stroke-linecap="round" stroke-linejoin="round"/>
</g>
<!-- skills -->
<g id="figma">
    <path d="M63.8833 36.1167C67.4928 36.0084 70.9181 34.4984 73.4329 31.907C75.9477 29.3156 77.3542 25.8466 77.3542 22.2355C77.3542 18.6244 75.9477 15.1554 73.4329 12.564C70.9181 9.97255 67.4928 8.46257 63.8833 8.35425H36.1167C32.5072 8.46257 29.0819 9.97255 26.5671 12.564C24.0523 15.1554 22.6458 18.6244 22.6458 22.2355C22.6458 25.8466 24.0523 29.3156 26.5671 31.907C29.0819 34.4984 32.5072 36.0084 36.1167 36.1167C32.4757 36.1798 29.0051 37.6705 26.4526 40.2676C23.9 42.8648 22.4697 46.3606 22.4697 50.0022C22.4697 53.6437 23.9 57.1395 26.4526 59.7367C29.0051 62.3338 32.4757 63.8245 36.1167 63.8876C32.4935 63.9764 29.0485 65.478 26.5173 68.072C23.9862 70.6659 22.5693 74.1466 22.5693 77.7709C22.5693 81.3952 23.9862 84.8759 26.5173 87.4698C29.0485 90.0638 32.4935 91.5655 36.1167 91.6542C39.7988 91.652 43.3294 90.188 45.9327 87.584C48.536 84.9799 49.9989 81.4489 50 77.7667V36.1167H63.8833Z" fill="currentColor" fill-opacity="0.5"/>
    <path d="M63.8833 63.8834C71.5509 63.8834 77.7667 57.6676 77.7667 50C77.7667 42.3325 71.5509 36.1167 63.8833 36.1167C56.2158 36.1167 50 42.3325 50 50C50 57.6676 56.2158 63.8834 63.8833 63.8834Z" fill="currentColor" fill-opacity="0.5"/>
</g>

<g id="html">
    <path d="M14.1798 9.375L20.6251 82.2852L50.0001 90.625L79.258 82.2852L85.8302 9.375H14.1798ZM72.2853 26.6699L71.8166 31.2793L71.6505 33.1836H37.3341L38.1349 42.3828H70.8595L70.5373 44.7559L68.4669 68.4082L68.3009 69.9902L50.0392 75.0293V75.0586H49.922L49.8927 75.0684V75.0586H49.883L31.465 69.9805L30.3517 55.8594H39.2482L39.883 63.0078L49.883 65.7129H49.922L59.883 63.0176L60.9962 51.4355H49.8927V51.4258H29.883L27.6564 26.6699L27.4904 24.2969H72.4415L72.2853 26.6699Z" fill="currentColor" fill-opacity="0.5"/>
</g>

<g id="css">
    <path d="M17.4667 13.0957H82.5292L76.6125 79.904L49.9292 87.454L23.3917 79.8999L17.4667 13.0957ZM70.4167 26.7665L29.5833 26.7582L30.2417 34.879L61.6125 34.8874L60.825 43.304H40.25L40.9958 51.2749H60.15L59.0167 62.1915L50 64.6832L40.8458 62.1707L40.2583 55.6332H32.175L33.075 67.579L50 72.8499L66.6458 68.1124L70.4167 26.7665Z" fill="currentColor" fill-opacity="0.5"/>
</g>

<g id="sass">
    <path d="M47.1636 69.2063C47.0698 69.3751 47.1167 69.3001 47.1636 69.2063V69.2063ZM86.0886 55.6126C82.9448 55.6126 79.8448 56.3313 77.0261 57.7219C76.1042 55.8626 75.1511 54.2376 74.9948 53.0188C74.8073 51.5969 74.6042 50.7532 74.823 49.0657C75.0417 47.3782 76.0261 44.9876 76.0104 44.8157C75.9948 44.6438 75.7917 43.7844 73.7761 43.7688C71.7604 43.7532 70.0261 44.1594 69.823 44.6907C69.4663 45.6613 69.1893 46.6594 68.9948 47.6751C68.6354 49.5032 64.9667 56.0344 62.8886 59.4407C62.2011 58.1126 61.6229 56.9407 61.4979 56.0032C61.3104 54.5813 61.1073 53.7376 61.3261 52.0501C61.5448 50.3626 62.5292 47.9719 62.5136 47.8001C62.4979 47.6282 62.2948 46.7688 60.2823 46.7532C58.2698 46.7376 56.5323 47.1438 56.3292 47.6751C56.1261 48.2063 55.9073 49.4563 55.5011 50.6594C55.0948 51.8626 50.2042 62.7376 48.9261 65.5657C48.2698 67.0032 47.7073 68.1594 47.3011 68.9407C47.2386 69.0657 47.1917 69.1438 47.1604 69.2063C47.2073 69.1282 47.2386 69.0501 47.2386 69.0813C46.8948 69.7532 46.6917 70.1282 46.6917 70.1282V70.1438C46.4261 70.6438 46.1292 71.0969 45.9886 71.0969C45.8948 71.0969 45.6917 69.7844 46.0354 67.9876C46.7698 64.2063 48.5042 58.3313 48.4886 58.1282C48.4729 58.0188 48.8167 57.0032 47.3479 56.4563C45.9261 55.9407 45.4104 56.8001 45.2854 56.8001C45.1604 56.8001 45.0667 57.1126 45.0667 57.1126C45.0667 57.1126 46.6448 50.4876 42.0354 50.4876C39.1604 50.4876 35.1604 53.6438 33.1948 56.5032C31.9604 57.1751 29.2886 58.6282 26.4761 60.1751L23.2417 61.9563C23.1636 61.8782 23.1011 61.8001 23.0229 61.7219C17.4292 55.7532 7.1042 51.5344 7.5417 43.5188C7.69795 40.5969 8.71357 32.9251 27.3979 23.6126C42.7104 15.9876 54.9511 18.0813 57.0604 22.7376C60.0917 29.3782 50.5136 41.7376 34.6136 43.5188C28.5511 44.1907 25.3667 41.8469 24.5698 40.9719C23.7417 40.0501 23.6167 40.0032 23.3042 40.1751C22.7886 40.4563 23.1167 41.2688 23.3042 41.7532C23.7729 42.9876 25.7261 45.1751 29.0542 46.2688C31.9761 47.2219 39.0823 47.7532 47.673 44.4251C57.3261 40.7063 64.8417 30.3469 62.6354 21.6751C60.3917 12.8626 45.7792 9.97194 31.9636 14.8782C23.7292 17.8001 14.8261 22.3938 8.42295 28.3782C0.813569 35.5032 -0.402056 41.7063 0.0979444 44.3001C1.87919 53.5032 14.5636 59.5032 19.6386 63.9407L18.9354 64.3313C16.3886 65.5969 6.71982 70.6594 4.29795 76.0032C1.56357 82.0657 4.75107 86.4094 6.84169 87.0032C13.3729 88.8157 20.0573 85.5501 23.6511 80.1907C27.2448 74.8313 26.8073 67.8313 25.1511 64.6438C25.1354 64.5969 25.1042 64.5657 25.0886 64.5188C26.9635 63.4083 28.8543 62.3248 30.7604 61.2688C30.1354 62.9563 29.6823 64.9876 29.4479 67.9251C29.1667 71.3626 30.5886 75.8157 32.4323 77.5657C33.2448 78.3313 34.2261 78.3469 34.8386 78.3469C36.9948 78.3469 37.9636 76.5657 39.0417 74.4407C40.3698 71.8469 41.5417 68.8313 41.5417 68.8313C41.5417 68.8313 40.0729 76.9876 44.0886 76.9876C45.5573 76.9876 47.0261 75.0969 47.6823 74.1282V74.1438C47.6823 74.1438 47.7136 74.0813 47.7917 73.9563C47.9479 73.7219 48.0261 73.5813 48.0261 73.5813V73.5344C48.6198 72.5188 49.9167 70.1907 51.8698 66.3469C54.4011 61.3782 56.8198 55.1751 56.8198 55.1751C57.0542 56.5376 57.3792 57.8844 57.7886 59.2063C58.2261 60.6907 59.1479 62.3157 59.8823 63.8938C59.2886 64.7063 58.9292 65.1751 58.9292 65.1751C58.9292 65.1876 58.9354 65.1969 58.9448 65.2063C58.4761 65.8313 57.9448 66.5032 57.3979 67.1594C55.4011 69.5344 53.0229 72.2532 52.7104 73.0344C52.3354 73.9563 52.4292 74.6438 53.1479 75.1751C53.6792 75.5813 54.6167 75.6438 55.6011 75.5657C57.3979 75.4407 58.6636 75.0032 59.2729 74.7219C60.3969 74.3192 61.4592 73.7618 62.4292 73.0657C64.3823 71.6282 65.5698 69.5657 65.4604 66.8469C65.3979 65.3469 64.9136 63.8469 64.3198 62.4407C64.4917 62.1907 64.6792 61.9251 64.8511 61.6594C66.8844 58.6255 68.7165 55.4614 70.3354 52.1876C70.5698 53.5501 70.8917 54.8969 71.3042 56.2188C71.6792 57.4844 72.4136 58.8751 73.0854 60.2344C70.1792 62.5938 68.3823 65.3282 67.7605 67.1251C66.6042 70.4532 67.5105 71.9532 69.2136 72.2969C69.9792 72.4532 71.0729 72.0938 71.8854 71.7501C73.0917 71.3469 74.2292 70.7626 75.2573 70.0157C77.2104 68.5782 79.1011 66.5626 78.9729 63.8282C78.9261 62.5938 78.5823 61.3594 78.1292 60.1719C80.5823 59.1407 83.7698 58.5782 87.8323 59.0469C96.5323 60.0626 98.2355 65.5001 97.9073 67.7657C97.5792 70.0313 95.7511 71.2969 95.1417 71.6719C94.5323 72.0469 94.3448 72.1876 94.3917 72.4688C94.4698 72.8751 94.7511 72.8594 95.2667 72.7657C95.9855 72.6407 99.8292 70.9219 100.001 66.7188C100.251 61.4063 95.1417 55.5626 86.0948 55.6094L86.0886 55.6126ZM19.0292 78.2219C16.1542 81.3626 12.1261 82.5501 10.3917 81.5501C8.53232 80.4688 9.2667 75.8469 12.8104 72.5001C14.9667 70.4688 17.7479 68.5938 19.5917 67.4376C20.0136 67.1876 20.6229 66.8126 21.3729 66.3594C21.4339 66.3204 21.4964 66.2839 21.5604 66.2501C21.7011 66.1563 21.8573 66.0782 22.0136 65.9844C23.3073 70.7344 22.0604 74.9219 19.0292 78.2188V78.2219ZM40.0229 63.9407C39.0229 66.3938 36.9167 72.6438 35.6323 72.3157C34.5386 72.0344 33.8667 67.2688 35.4136 62.5813C36.1948 60.2219 37.8511 57.4094 38.8354 56.3157C40.4136 54.5501 42.1479 53.9876 42.5542 54.6907C43.1011 55.6126 40.6479 62.4094 40.0229 63.9407ZM57.3667 72.2219C56.9448 72.4407 56.5542 72.5813 56.3667 72.4719C56.2261 72.3938 56.5386 72.0969 56.5386 72.0969C56.5386 72.0969 58.7104 69.7688 59.5698 68.7063C60.0698 68.0813 60.6479 67.3469 61.2729 66.5344C61.2729 66.6126 61.2886 66.6907 61.2886 66.7844C61.2698 69.5813 58.5823 71.4719 57.3636 72.2219H57.3667ZM70.7417 69.1751C70.4292 68.9563 70.4761 68.2219 71.5229 65.9407C71.9292 65.0501 72.8667 63.5501 74.4917 62.1126C74.6761 62.6563 74.7761 63.2251 74.7886 63.8001C74.7729 67.3157 72.2573 68.6282 70.7417 69.1751Z" fill="currentColor" fill-opacity="0.5"/>
</g>

<g id="react">
    <path d="M100 48.7043C100 42.0793 91.7042 35.8001 78.9833 31.9084C81.9208 18.9459 80.6167 8.62925 74.8667 5.32508C73.4734 4.54475 71.8965 4.15197 70.3 4.18758V8.72925C71.2375 8.72925 71.9917 8.91675 72.625 9.26258C75.3958 10.8542 76.6 16.9043 75.6625 24.6917C75.4375 26.6084 75.0708 28.6251 74.6208 30.6834C70.361 29.6569 66.0375 28.915 61.6792 28.4626C59.0827 24.8805 56.25 21.4757 53.2 18.2709C59.8458 12.0959 66.0833 8.71258 70.325 8.71258V4.16675C64.7167 4.16675 57.3792 8.16258 49.9583 15.0917C42.5417 8.20842 35.2 4.25008 29.5958 4.25008V8.79175C33.8167 8.79175 40.075 12.1584 46.7208 18.2917C43.8667 21.2917 41.0125 24.6917 38.3 28.4626C33.9326 28.91 29.6015 29.659 25.3375 30.7043C24.8667 28.6667 24.5208 26.6918 24.275 24.7959C23.3167 17.0042 24.5 10.9542 27.2542 9.34592C27.8625 8.97925 28.6583 8.81258 29.5958 8.81258V4.27091C27.8875 4.27091 26.3333 4.63758 24.9917 5.40841C19.2625 8.71258 17.9792 19.0042 20.9333 31.9293C8.25417 35.8459 0 42.1001 0 48.7043C0 55.3293 8.29583 61.6084 21.0167 65.4959C18.0792 78.4626 19.3833 88.7793 25.1333 92.0793C26.4583 92.8543 28.0083 93.2209 29.7167 93.2209C35.325 93.2209 42.6625 89.2251 50.0833 82.2959C57.5 89.1834 64.8375 93.1376 70.4458 93.1376C72.0546 93.1716 73.6435 92.7776 75.05 91.9959C80.7792 88.6959 82.0625 78.4043 79.1083 65.4793C91.7458 61.5876 100 55.3084 100 48.7043ZM73.4583 35.1084C72.6666 37.8328 71.7489 40.519 70.7083 43.1584C69.0048 39.8449 67.1344 36.6199 65.1042 33.4959C68 33.9251 70.7917 34.4542 73.4625 35.1084H73.4583ZM64.125 56.8167C62.5375 59.5667 60.9042 62.1793 59.2125 64.6043C53.0969 65.1433 46.946 65.1502 40.8292 64.6251C37.3206 59.6133 34.2522 54.3074 31.6583 48.7668C34.2483 43.213 37.3036 37.8885 40.7917 32.8501C46.9058 32.31 53.0553 32.3016 59.1708 32.8251C60.8625 35.2501 62.5167 37.8418 64.1042 40.5751C65.6542 43.2417 67.0625 45.9501 68.3458 48.6834C67.0483 51.4499 65.6402 54.1632 64.125 56.8167ZM70.7083 54.1668C71.8083 56.8959 72.75 59.6292 73.5208 62.2793C70.8542 62.9334 68.0375 63.4834 65.125 63.9084C67.1468 60.756 69.0103 57.5047 70.7083 54.1668ZM50.0417 75.9167C48.1458 73.9584 46.25 71.7793 44.375 69.3917C46.2083 69.4751 48.0833 69.5376 49.9792 69.5376C51.8958 69.5376 53.7917 69.4959 55.6458 69.3917C53.8125 71.7793 51.9167 73.9584 50.0417 75.9167ZM34.875 63.9084C32.0656 63.5014 29.2765 62.9647 26.5167 62.3001C27.2708 59.6709 28.2083 56.9584 29.2667 54.2501C30.1042 55.8751 30.9833 57.5084 31.9417 59.1418C32.9 60.7709 33.875 62.3626 34.875 63.9084ZM49.9375 21.4917C51.8333 23.4501 53.7292 25.6292 55.6042 28.0168C53.7708 27.9334 51.8958 27.8709 50 27.8709C48.0833 27.8709 46.1875 27.9126 44.3333 28.0168C46.1667 25.6292 48.0625 23.4501 49.9375 21.4917ZM34.8542 33.5001C32.8328 36.6456 30.9694 39.8899 29.2708 43.2209C28.2009 40.5645 27.2623 37.8571 26.4583 35.1084C29.125 34.4751 31.9417 33.9251 34.8542 33.5001ZM16.4083 59.0168C9.19167 55.9417 4.525 51.9043 4.525 48.7043C4.525 45.5043 9.19167 41.4459 16.4083 38.3918C18.1583 37.6376 20.075 36.9626 22.0542 36.3334C23.2167 40.3251 24.7458 44.4834 26.6375 48.7459C24.8515 52.755 23.3411 56.8813 22.1167 61.0959C20.181 60.4966 18.276 59.8027 16.4083 59.0168ZM27.375 88.1418C24.6042 86.5584 23.4 80.5001 24.3375 72.7168C24.5625 70.8001 24.9292 68.7793 25.3792 66.7209C29.3708 67.7001 33.7333 68.4543 38.3208 68.9459C40.9174 72.528 43.7501 75.9327 46.8 79.1376C40.1542 85.3126 33.9167 88.6959 29.675 88.6959C28.8748 88.7047 28.0847 88.5157 27.375 88.1459V88.1418ZM75.725 72.6126C76.6833 80.4001 75.5 86.4543 72.7458 88.0626C72.1375 88.4293 71.3417 88.5918 70.4042 88.5918C66.1833 88.5918 59.925 85.2293 53.2792 79.0918C56.1333 76.1001 58.9875 72.6959 61.7 68.9251C66.0674 68.4777 70.3985 67.7287 74.6625 66.6834C75.1333 68.7418 75.4958 70.7168 75.725 72.6126ZM83.5708 59.0168C81.8208 59.7709 79.9042 60.4459 77.925 61.0751C76.6791 56.8389 75.1478 52.6919 73.3417 48.6626C75.2167 44.4251 76.7208 40.2876 77.8625 36.3126C79.8833 36.9417 81.7958 37.6376 83.5917 38.3918C90.8083 41.4668 95.475 45.5043 95.475 48.7043C95.4542 51.9043 90.7875 55.9626 83.5708 59.0168Z" fill="currentColor" fill-opacity="0.5"/>
    <path d="M49.9791 58.021C52.4501 58.021 54.8198 57.0394 56.567 55.2922C58.3142 53.545 59.2958 51.1753 59.2958 48.7044C59.2958 46.2334 58.3142 43.8637 56.567 42.1165C54.8198 40.3693 52.4501 39.3877 49.9791 39.3877C47.5082 39.3877 45.1385 40.3693 43.3913 42.1165C41.644 43.8637 40.6625 46.2334 40.6625 48.7044C40.6625 51.1753 41.644 53.545 43.3913 55.2922C45.1385 57.0394 47.5082 58.021 49.9791 58.021Z" fill="currentColor" fill-opacity="0.5"/>
</g>
<!-- socials -->
<g id="dribble">
    <path d="M22.9167 12.5C22.9184 13.8721 22.6483 15.2308 22.1218 16.4979C21.5953 17.7649 20.823 18.915 19.8495 19.8818C18.8839 20.8457 17.7378 21.6098 16.4767 22.1306C15.2157 22.6513 13.8643 22.9185 12.5 22.9167C6.74686 22.9167 2.08332 18.2531 2.08332 12.5C2.07968 9.82906 3.10565 7.25947 4.94791 5.32554C5.91996 4.29981 7.09109 3.48322 8.38964 2.92574C9.68819 2.36826 11.0868 2.08162 12.5 2.08335C13.8643 2.08159 15.2157 2.34871 16.4767 2.86945C17.7378 3.3902 18.8839 4.15435 19.8495 5.11825C20.823 6.08503 21.5953 7.23516 22.1218 8.50218C22.6483 9.7692 22.9184 11.128 22.9167 12.5V12.5Z" stroke="currentColor" stroke-width="2" stroke-linecap="round" stroke-linejoin="round"/>
    <path d="M22.9167 12.5C21.3969 12.5 17.2042 11.9271 13.4515 13.5745C9.37498 15.3646 6.42342 18.1411 5.13696 19.8682" stroke="currentColor" stroke-width="2" stroke-linecap="round" stroke-linejoin="round"/>
    <path d="M8.59375 2.84064C10.224 4.34532 13.7812 8.17657 15.1042 11.9792C16.4271 15.7823 16.9167 20.4583 17.2188 21.7891" stroke="currentColor" stroke-width="2" stroke-linecap="round" stroke-linejoin="round"/>
    <path d="M2.16354 11.1979C4.13125 11.3167 9.34011 11.4235 12.6734 10C16.0068 8.57658 18.875 5.95835 19.8589 5.12762" stroke="currentColor" stroke-width="2" stroke-linecap="round" stroke-linejoin="round"/>
    <path d="M2.86456 16.4651C3.78243 18.6869 5.43785 20.5246 7.55206 21.6688" stroke="currentColor" stroke-width="2" stroke-linecap="round" stroke-linejoin="round"/>
    <path d="M2.08332 12.5C2.07968 9.82906 3.10565 7.25947 4.94791 5.32553" stroke="currentColor" stroke-width="2" stroke-linecap="round" stroke-linejoin="round"/>
    <path d="M12.5 2.08335C11.0868 2.08162 9.68819 2.36826 8.38964 2.92574C7.09109 3.48322 5.91996 4.29981 4.94791 5.32554" stroke="currentColor" stroke-width="2" stroke-linecap="round" stroke-linejoin="round"/>
    <path d="M16.6667 2.95001C17.8529 3.46904 18.9322 4.2043 19.8495 5.11824C20.823 6.08503 21.5954 7.23516 22.1218 8.50217C22.6483 9.76919 22.9184 11.128 22.9167 12.5C22.9167 13.7828 22.6849 15.011 22.2604 16.1458" stroke="currentColor" stroke-width="2" stroke-linecap="round" stroke-linejoin="round"/>
    <path d="M12.5 22.9167C13.8644 22.9185 15.2157 22.6513 16.4767 22.1306C17.7378 21.6099 18.8839 20.8457 19.8495 19.8818" stroke="currentColor" stroke-width="2" stroke-linecap="round" stroke-linejoin="round"/>
</g>

<g id="upwork2">
    <path d="M19.3359 13.7047C18.1883 13.7047 17.1102 13.2203 16.1336 12.4273L16.3695 11.3086L16.3773 11.2641C16.593 10.0758 17.2602 8.07812 19.3352 8.07812C20.0818 8.07833 20.7979 8.37504 21.3259 8.90303C21.8539 9.43101 22.1506 10.1471 22.1508 10.8937C22.1495 11.6398 21.8524 12.3548 21.3245 12.8819C20.7966 13.4091 20.0812 13.7053 19.3352 13.7055L19.3359 13.7047ZM19.3359 5.2289C16.6914 5.2289 14.6359 6.94609 13.8023 9.77421C12.5328 7.86562 11.5641 5.57109 11.0031 3.63828H8.15469V11.0477C8.15324 11.7509 7.87325 12.4249 7.37601 12.9221C6.87876 13.4193 6.20477 13.6993 5.50156 13.7008C4.79854 13.6987 4.12491 13.4185 3.6278 12.9214C3.13069 12.4243 2.8505 11.7507 2.84844 11.0477V3.63828H0V11.0477C0 14.0828 2.46953 16.5695 5.50156 16.5695C8.53672 16.5695 11.0031 14.0836 11.0031 11.0477V9.80624C11.5562 10.9578 12.2359 12.1297 13.0617 13.1633L11.3164 21.3625H14.2297L15.4953 15.4133C16.6023 16.1211 17.8758 16.5687 19.3367 16.5687C22.4617 16.5687 25.0008 14.0133 25.0008 10.8922C25.0008 7.76718 22.4617 5.22812 19.3367 5.22812L19.3359 5.2289Z" fill="currentColor"/>
</g>

<g id="youtube">
    <path d="M24.4798 6.77812C24.3383 6.27316 24.0625 5.81598 23.6819 5.45521C23.2905 5.08333 22.8109 4.81733 22.2881 4.68229C20.3319 4.16666 12.4944 4.16666 12.4944 4.16666C9.22703 4.12949 5.96046 4.29299 2.71314 4.65625C2.19042 4.80126 1.71165 5.07321 1.31939 5.44791C0.933976 5.81875 0.65481 6.27604 0.508976 6.77708C0.158656 8.66431 -0.0115529 10.5806 0.000642899 12.5C-0.0118571 14.4177 0.157935 16.3333 0.508976 18.2229C0.651685 18.7219 0.92981 19.1771 1.31627 19.5448C1.70273 19.9125 2.18398 20.1781 2.71314 20.3187C4.69544 20.8333 12.4944 20.8333 12.4944 20.8333C15.7659 20.8706 19.0366 20.7071 22.2881 20.3437C22.8109 20.2087 23.2905 19.9427 23.6819 19.5708C24.0673 19.2031 24.3413 18.7458 24.4788 18.2479C24.8382 16.3614 25.013 14.4444 25.0006 12.524C25.0277 10.5954 24.8531 8.66934 24.4798 6.77708V6.77812ZM10.0027 16.0667V8.93437L16.5236 12.501L10.0027 16.0667Z" fill="currentColor"/>
</g>

<g id="linkedin">
    <path fill-rule="evenodd" clip-rule="evenodd" d="M1.04167 2.95624C1.04167 2.44846 1.24339 1.96148 1.60244 1.60243C1.96149 1.24337 2.44848 1.04166 2.95626 1.04166H22.0417C22.2933 1.04125 22.5426 1.09047 22.7752 1.18652C23.0077 1.28257 23.2191 1.42354 23.3971 1.60138C23.5752 1.77922 23.7164 1.99043 23.8127 2.22292C23.909 2.45541 23.9585 2.7046 23.9583 2.95624V22.0417C23.9586 22.2934 23.9093 22.5426 23.8131 22.7752C23.7169 23.0078 23.5759 23.2192 23.3979 23.3972C23.22 23.5752 23.0087 23.7164 22.7762 23.8127C22.5437 23.909 22.2944 23.9585 22.0427 23.9583H2.95626C2.70474 23.9583 2.45569 23.9088 2.22334 23.8125C1.99098 23.7162 1.77987 23.5751 1.60207 23.3972C1.42427 23.2193 1.28327 23.0081 1.18711 22.7757C1.09096 22.5433 1.04154 22.2942 1.04167 22.0427V2.95624ZM10.1125 9.77916H13.2156V11.3375C13.6635 10.4417 14.8094 9.63541 16.5313 9.63541C19.8323 9.63541 20.6146 11.4198 20.6146 14.6937V20.7583H17.274V15.4396C17.274 13.575 16.826 12.5229 15.6885 12.5229C14.1104 12.5229 13.4542 13.6573 13.4542 15.4396V20.7583H10.1125V9.77916ZM4.38334 20.6156H7.72501V9.63541H4.38334V20.6146V20.6156ZM8.20313 6.05416C8.20943 6.34028 8.15852 6.62477 8.05338 6.89095C7.94824 7.15712 7.791 7.39961 7.59087 7.60419C7.39075 7.80877 7.15178 7.97132 6.88798 8.08229C6.62418 8.19326 6.34088 8.25043 6.05469 8.25043C5.76851 8.25043 5.4852 8.19326 5.22141 8.08229C4.95761 7.97132 4.71864 7.80877 4.51851 7.60419C4.31839 7.39961 4.16114 7.15712 4.05601 6.89095C3.95087 6.62477 3.89996 6.34028 3.90626 6.05416C3.91862 5.49255 4.15041 4.95811 4.55197 4.56529C4.95353 4.17247 5.49295 3.95251 6.05469 3.95251C6.61644 3.95251 7.15585 4.17247 7.55742 4.56529C7.95898 4.95811 8.19076 5.49255 8.20313 6.05416Z" fill="currentColor"/>
</g>

<g id="github">
    <path fill-rule="evenodd" clip-rule="evenodd" d="M12.5 0C5.59375 0 0 5.59375 0 12.5C0 18.0312 3.57812 22.7031 8.54688 24.3594C9.17188 24.4688 9.40625 24.0938 9.40625 23.7656C9.40625 23.4688 9.39062 22.4844 9.39062 21.4375C6.25 22.0156 5.4375 20.6719 5.1875 19.9688C5.04688 19.6094 4.4375 18.5 3.90625 18.2031C3.46875 17.9688 2.84375 17.3906 3.89062 17.375C4.875 17.3594 5.57812 18.2812 5.8125 18.6562C6.9375 20.5469 8.73437 20.0156 9.45312 19.6875C9.5625 18.875 9.89062 18.3281 10.25 18.0156C7.46875 17.7031 4.5625 16.625 4.5625 11.8437C4.5625 10.4844 5.04688 9.35938 5.84375 8.48438C5.71875 8.17188 5.28125 6.89062 5.96875 5.17188C5.96875 5.17188 7.01562 4.84375 9.40625 6.45312C10.4062 6.17188 11.4687 6.03125 12.5312 6.03125C13.5937 6.03125 14.6562 6.17188 15.6562 6.45312C18.0469 4.82812 19.0938 5.17188 19.0938 5.17188C19.7812 6.89062 19.3438 8.17188 19.2188 8.48438C20.0156 9.35938 20.5 10.4687 20.5 11.8437C20.5 16.6406 17.5781 17.7031 14.7969 18.0156C15.25 18.4062 15.6406 19.1562 15.6406 20.3281C15.6406 22 15.625 23.3438 15.625 23.7656C15.625 24.0938 15.8594 24.4844 16.4844 24.3594C18.9658 23.5216 21.1221 21.9268 22.6496 19.7993C24.1772 17.6719 24.9993 15.119 25 12.5C25 5.59375 19.4062 0 12.5 0Z" fill="currentColor"/>
</g>
<g id="arrow-left">
<path d="M27.6667 12.6666L0.999999 12.6666" stroke="currentColor" stroke-width="2" stroke-linecap="round" stroke-linejoin="round"/>
<path d="M12.6667 24.3333L1 12.6666L12.6667 0.999977" stroke="currentColor" stroke-width="2" stroke-linecap="round" stroke-linejoin="round"/>
</g>
<g id="arrow-right">
<path d="M1 12.6667H27.6667" stroke="currentColor" stroke-width="2" stroke-linecap="round" stroke-linejoin="round"/>
<path d="M16 1L27.6667 12.6667L16 24.3333" stroke="currentColor" stroke-width="2" stroke-linecap="round" stroke-linejoin="round"/>
</g>
<g id="computer">
<path fill-rule="evenodd" clip-rule="evenodd" d="M0 2.95C0 2.16761 0.31607 1.41727 0.87868 0.864035C1.44129 0.310803 2.20435 0 3 0H18C18.7956 0 19.5587 0.310803 20.1213 0.864035C20.6839 1.41727 21 2.16761 21 2.95V14.75C21 15.5324 20.6839 16.2827 20.1213 16.836C19.5587 17.3892 18.7956 17.7 18 17.7H14.67L14.8545 18.4213L16.0605 19.6072C16.2702 19.8135 16.413 20.0762 16.4709 20.3623C16.5287 20.6484 16.499 20.9449 16.3855 21.2144C16.272 21.4839 16.0798 21.7142 15.8332 21.8763C15.5866 22.0384 15.2966 22.1249 15 22.125H6C5.70337 22.1249 5.41343 22.0384 5.16681 21.8763C4.9202 21.7142 4.72799 21.4839 4.61448 21.2144C4.50098 20.9449 4.47127 20.6484 4.52912 20.3623C4.58698 20.0762 4.72979 19.8135 4.9395 19.6072L6.1455 18.4213L6.33 17.7H3C2.20435 17.7 1.44129 17.3892 0.87868 16.836C0.31607 16.2827 0 15.5324 0 14.75V2.95ZM8.6565 13.275H3V2.95H18V13.275H8.6565Z" fill="currentColor"/>
</g>
<g id="paint">
<path fill-rule="evenodd" clip-rule="evenodd" d="M24.33 20.5852C25.896 14.8386 22.188 8.90315 16.0965 7.29835C9.21747 5.4841 -0.546033 10.1953 1.62597 16.2383C2.34597 18.237 3.73197 18.7045 6.34647 18.7414L6.50997 18.7444C7.89147 18.7606 8.27997 18.8491 8.39697 19.0349C8.58747 19.3417 8.59047 19.83 8.37597 21.1737C8.27397 21.8079 8.24097 22.0292 8.20197 22.3758C7.96347 24.4865 8.32647 26.1326 9.73197 27.6224C14.124 32.2731 22.5615 27.0722 24.33 20.5852ZM4.45497 15.253C3.36147 12.2145 10.359 8.83825 15.3195 10.1451C19.845 11.3384 22.5585 15.6823 21.432 19.8196C20.175 24.4334 14.259 28.0796 11.931 25.6134C11.211 24.8523 11.0325 24.0381 11.184 22.7003C11.2155 22.4142 11.2455 22.2165 11.34 21.6295C11.6685 19.5689 11.664 18.6278 10.953 17.4906C10.062 16.0643 9.00297 15.8239 6.54747 15.7929L6.38847 15.7899C4.94247 15.7708 4.59897 15.6542 4.45347 15.253H4.45497Z" fill="currentColor"/>
<path d="M9 14.75C8.50272 14.75 8.02581 14.5557 7.67417 14.21C7.32254 13.8642 7.125 13.3952 7.125 12.9062C7.125 12.4173 7.32254 11.9483 7.67417 11.6025C8.02581 11.2568 8.50272 11.0625 9 11.0625C9.49728 11.0625 9.97419 11.2568 10.3258 11.6025C10.6775 11.9483 10.875 12.4173 10.875 12.9062C10.875 13.3952 10.6775 13.8642 10.3258 14.21C9.97419 14.5557 9.49728 14.75 9 14.75Z" fill="currentColor"/>
<path d="M14.625 14.75C14.1277 14.75 13.6508 14.5557 13.2992 14.21C12.9475 13.8642 12.75 13.3952 12.75 12.9062C12.75 12.4173 12.9475 11.9483 13.2992 11.6025C13.6508 11.2568 14.1277 11.0625 14.625 11.0625C15.1223 11.0625 15.5992 11.2568 15.9508 11.6025C16.3025 11.9483 16.5 12.4173 16.5 12.9062C16.5 13.3952 16.3025 13.8642 15.9508 14.21C15.5992 14.5557 15.1223 14.75 14.625 14.75Z" fill="currentColor"/>
<path d="M18.375 19.175C17.8777 19.175 17.4008 18.9808 17.0492 18.635C16.6975 18.2893 16.5 17.8203 16.5 17.3313C16.5 16.8423 16.6975 16.3733 17.0492 16.0276C17.4008 15.6818 17.8777 15.4875 18.375 15.4875C18.8723 15.4875 19.3492 15.6818 19.7008 16.0276C20.0525 16.3733 20.25 16.8423 20.25 17.3313C20.25 17.8203 20.0525 18.2893 19.7008 18.635C19.3492 18.9808 18.8723 19.175 18.375 19.175Z" fill="currentColor"/>
<path d="M16.125 24.3375C15.6277 24.3375 15.1508 24.1433 14.7992 23.7975C14.4475 23.4517 14.25 22.9828 14.25 22.4938C14.25 22.0048 14.4475 21.5358 14.7992 21.19C15.1508 20.8443 15.6277 20.65 16.125 20.65C16.6223 20.65 17.0992 20.8443 17.4508 21.19C17.8025 21.5358 18 22.0048 18 22.4938C18 22.9828 17.8025 23.4517 17.4508 23.7975C17.0992 24.1433 16.6223 24.3375 16.125 24.3375Z" fill="currentColor"/>
<path d="M21.555 5.31754C21.7329 5.22384 21.9281 5.16639 22.1291 5.14862C22.33 5.13086 22.5326 5.15315 22.7246 5.21415C22.9166 5.27516 23.0941 5.37363 23.2465 5.50367C23.3989 5.63371 23.523 5.79264 23.6115 5.97097L29.751 18.361C29.8535 18.5837 29.8659 18.8364 29.7857 19.0678C29.7055 19.2992 29.5387 19.4918 29.3192 19.6066C29.0997 19.7214 28.844 19.7497 28.6041 19.6857C28.3641 19.6217 28.158 19.4703 28.0275 19.2622L20.9655 7.35894C20.864 7.18771 20.7987 6.99808 20.7735 6.80142C20.7483 6.60477 20.7638 6.40514 20.819 6.2145C20.8742 6.02387 20.9679 5.84616 21.0947 5.69203C21.2214 5.5379 21.3785 5.41052 21.5565 5.31754H21.555Z" fill="currentColor"/>
<path fill-rule="evenodd" clip-rule="evenodd" d="M18.8054 5.13899C19.5359 6.48861 20.7644 6.86621 21.9524 6.24524C23.1389 5.62574 23.5094 4.41181 22.7789 3.06219C21.9449 1.51639 20.1569 0.115138 18.9719 0.733163C17.7869 1.35266 17.9699 3.59319 18.8069 5.13899H18.8054ZM20.1299 4.44574C19.8643 3.92128 19.7015 3.35235 19.6499 2.76866C19.6276 2.52465 19.6367 2.27884 19.6769 2.03706L19.7039 2.05034C19.7789 2.08574 20.0114 2.19194 20.3084 2.42499C20.7614 2.78046 21.2114 3.30409 21.4544 3.75396C21.7979 4.38821 21.7004 4.70681 21.2474 4.94429C20.7974 5.18029 20.4734 5.07999 20.1299 4.44721V4.44574Z" fill="currentColor"/>
</g>
<g id="thunder">
<path d="M18.1153 2.97035C18.7665 2.16033 18.1528 1 17.0703 1H8.67529C8.20654 1 7.77279 1.236 7.53904 1.61704L1.18654 12.0109C0.685291 12.8295 1.31529 13.8509 2.32154 13.8509H6.60779L2.57029 23.7642C1.98654 25.0179 3.56404 26.1647 4.62404 25.2576L21.0103 10.011H12.449L18.1153 2.97035V2.97035Z" stroke="currentColor" stroke-width="2" stroke-linecap="round" stroke-linejoin="round"/>
</g>
<g id="goTop">
<path d="M6.80722 4.2806V15H9.19278V4.2806L14.3134 9.08118L16 7.5L8 0L0 7.5L1.6866 9.08118L6.80722 4.2806Z" fill="currentColor"/>
</g>
<g id="figma2">
<g clip-path="url(#clip0_115103_500)">
<path d="M76.5625 0H23.4375C10.4933 0 0 10.4933 0 23.4375V76.5625C0 89.5067 10.4933 100 23.4375 100H76.5625C89.5067 100 100 89.5067 100 76.5625V23.4375C100 10.4933 89.5067 0 76.5625 0Z" fill="#F4F2ED"/>
<mask id="mask0_115103_500" style="mask-type:luminance" maskUnits="userSpaceOnUse" x="23" y="10" width="53" height="80">
<path d="M23.8281 10.9375H75.9219V89.0625H23.8281V10.9375Z" fill="white"/>
</mask>
<g mask="url(#mask0_115103_500)">
<path d="M36.8543 89.0625C44.0418 89.0625 49.875 83.2293 49.875 76.0418V63.0207H36.8543C29.6668 63.0207 23.8332 68.8543 23.8332 76.0418C23.8332 83.2293 29.6668 89.0625 36.8543 89.0625Z" fill="#0ACF83"/>
<path d="M23.8332 50C23.8332 42.8125 29.6668 36.9793 36.8543 36.9793H49.875V63.0207H36.8543C29.6668 63.0207 23.8332 57.1875 23.8332 50Z" fill="#A259FF"/>
<path d="M23.8332 23.9582C23.8332 16.7707 29.6668 10.9375 36.8543 10.9375H49.875V36.9793H36.8543C29.6668 36.9793 23.8332 31.1457 23.8332 23.9582Z" fill="#F24E1E"/>
<path d="M49.875 10.9375H62.8957C70.0832 10.9375 75.9168 16.7707 75.9168 23.9582C75.9168 31.1457 70.0832 36.9793 62.8957 36.9793H49.875V10.9375Z" fill="#FF7262"/>
<path d="M75.9168 50C75.9168 57.1875 70.0832 63.0207 62.8957 63.0207C55.7082 63.0207 49.875 57.1875 49.875 50C49.875 42.8125 55.7082 36.9793 62.8957 36.9793C70.0832 36.9793 75.9168 42.8125 75.9168 50Z" fill="#1ABCFE"/>
</g>
</g>
<defs>
<clipPath id="clip0_115103_500">
<rect width="100" height="100" fill="white"/>
</clipPath>
</defs>
</g>
<g id="github2">
<g clip-path="url(#clip0_115103_492)">
<path d="M76.5625 0H23.4375C10.4933 0 0 10.4933 0 23.4375V76.5625C0 89.5067 10.4933 100 23.4375 100H76.5625C89.5067 100 100 89.5067 100 76.5625V23.4375C100 10.4933 89.5067 0 76.5625 0Z" fill="#F03C2E"/>
<mask id="mask0_115103_492" style="mask-type:luminance" maskUnits="userSpaceOnUse" x="10" y="10" width="80" height="80">
<path d="M10.9375 10.9375H89.0625V89.0625H10.9375V10.9375Z" fill="white"/>
</mask>
<g mask="url(#mask0_115103_492)">
<path d="M87.5876 46.5211L53.4786 12.4121C52.7754 11.7081 51.879 11.2285 50.903 11.0343C49.927 10.8401 48.9154 10.9399 47.9962 11.3211C47.3859 11.574 46.8314 11.9448 46.3645 12.4121L39.2844 19.4922L48.2688 28.4766C50.3587 27.7442 52.7512 28.2446 54.4161 29.9098C55.2086 30.7038 55.7619 31.7047 56.0127 32.7982C56.2635 33.8917 56.2017 35.0337 55.8344 36.0938L64.4942 44.7535C66.5891 44.0309 69.0059 44.4969 70.6782 46.1742C71.5159 47.0116 72.0863 48.0786 72.3172 49.2403C72.5481 50.4019 72.4292 51.606 71.9755 52.7C71.3672 54.1668 70.2013 55.332 68.7342 55.9395C67.2671 56.5469 65.6188 56.5469 64.1516 55.9395C63.4251 55.6383 62.7649 55.1973 62.2091 54.641C60.4512 52.8832 60.0169 50.2953 60.9055 48.1297L52.8294 40.0535V61.3063C53.4156 61.5963 53.9514 61.9788 54.4161 62.4391C55.5389 63.5618 56.1696 65.0847 56.1696 66.6725C56.1696 68.2603 55.5389 69.7831 54.4161 70.9059C53.2933 72.0286 51.7705 72.6594 50.1827 72.6594C48.5949 72.6594 47.0721 72.0286 45.9493 70.9059C45.1113 70.069 44.5405 69.0022 44.3092 67.8406C44.0779 66.679 44.1966 65.475 44.6501 64.3809C44.9512 63.6544 45.3927 62.9946 45.9493 62.4391C46.5278 61.8629 47.17 61.4258 47.9098 61.1328V39.6824C47.1757 39.3823 46.5091 38.9383 45.9493 38.3766C45.1087 37.5369 44.5372 36.4659 44.3076 35.3001C44.078 34.1343 44.2008 32.9266 44.6602 31.8309L35.7981 22.9738L12.4094 46.3379C11.7053 47.0415 11.2258 47.9382 11.0314 48.9144C10.8371 49.8907 10.9367 50.9027 11.3177 51.8223C11.5708 52.4329 11.9418 52.9876 12.4094 53.4547L46.5208 87.561C46.9878 88.0282 47.5422 88.3989 48.1524 88.652C49.3853 89.1623 50.7703 89.1623 52.0032 88.652C52.6134 88.3989 53.1678 88.0282 53.6348 87.561L87.5876 53.6621C88.0551 53.195 88.4259 52.6403 88.679 52.0297C88.9321 51.4192 89.0624 50.7648 89.0626 50.1039C89.0626 49.4429 88.9324 48.7884 88.6793 48.1778C88.4262 47.5672 88.0552 47.0125 87.5876 46.5453" fill="white"/>
</g>
</g>
<defs>
<clipPath id="clip0_115103_492">
<rect width="100" height="100" fill="white"/>
</clipPath>
</defs>
</g>
<g id="github3">
<path d="M33.7891 69.7917C33.9627 69.5312 33.8976 69.2491 33.5938 68.9453C33.2031 68.6415 32.8993 68.5981 32.6823 68.8151C32.5087 69.0755 32.5738 69.3576 32.8776 69.6615C33.2682 69.9653 33.572 70.0087 33.7891 69.7917ZM31.9661 67.1224C31.7491 66.8186 31.4887 66.7318 31.1849 66.862C30.9245 67.0356 30.9245 67.296 31.1849 67.6432C31.4887 67.9904 31.7491 68.099 31.9661 67.9688C32.2266 67.7951 32.2266 67.513 31.9661 67.1224ZM29.2969 64.5182C29.3837 64.3446 29.2752 64.171 28.9714 63.9974C28.6675 63.9106 28.4939 63.954 28.4505 64.1276C28.3203 64.3446 28.4071 64.5182 28.7109 64.6484C29.0582 64.7352 29.2535 64.6918 29.2969 64.5182ZM30.6641 66.0156C30.7509 65.9722 30.7834 65.8746 30.7617 65.7227C30.74 65.5707 30.6641 65.4514 30.5339 65.3646C30.2734 65.0608 30.0564 64.9957 29.8828 65.1693C29.7092 65.3429 29.7309 65.5816 29.9479 65.8854C30.2083 66.1458 30.447 66.1892 30.6641 66.0156ZM36.263 70.8984C36.3498 70.5946 36.1545 70.3559 35.6771 70.1823C35.2865 70.0521 35.0043 70.1389 34.8307 70.4427C34.7439 70.7465 34.9392 70.9852 35.4167 71.1589C35.8073 71.2891 36.0894 71.2023 36.263 70.8984ZM38.9974 71.0938C38.9974 70.7465 38.737 70.5729 38.2161 70.5729C37.7821 70.5729 37.5651 70.7465 37.5651 71.0938C37.5651 71.441 37.8038 71.6146 38.2812 71.6146C38.7587 71.6146 38.9974 71.441 38.9974 71.0938ZM41.5365 70.638C41.4496 70.3342 41.1675 70.2257 40.6901 70.3125C40.2127 70.3993 40.0174 70.5946 40.1042 70.8984C40.191 71.2457 40.4514 71.3759 40.8854 71.2891C41.3194 71.2023 41.5365 70.9852 41.5365 70.638ZM83.3333 50C83.3333 40.7986 80.0781 32.9427 73.5677 26.4323C67.0573 19.9219 59.2014 16.6667 50 16.6667C40.7986 16.6667 32.9427 19.9219 26.4323 26.4323C19.9219 32.9427 16.6667 40.7986 16.6667 50C16.6667 57.2483 18.7934 63.7695 23.0469 69.5638C27.3003 75.3581 32.7691 79.3837 39.4531 81.6406C40.2344 81.7708 40.8095 81.6623 41.1784 81.3151C41.5473 80.9679 41.7318 80.5339 41.7318 80.013C41.7318 77.7561 41.7101 75.6944 41.6667 73.8281C41.4062 73.8715 41.0699 73.9258 40.6576 73.9909C40.2452 74.056 39.4748 74.0994 38.3464 74.1211C37.2179 74.1428 36.1762 74.056 35.2214 73.8607C34.2665 73.6654 33.3225 73.2313 32.3893 72.5586C31.4562 71.8858 30.816 70.9852 30.4687 69.8568C29.4705 67.296 28.2335 65.6901 26.7578 65.0391C26.671 64.9957 26.5733 64.9197 26.4648 64.8112L25.944 64.2904L25.4883 63.6719L25.7487 63.1836L27.0182 62.9557C27.2786 62.9557 27.6042 62.9991 27.9948 63.0859C28.3854 63.1727 29.0365 63.5091 29.9479 64.095C30.8594 64.681 31.5755 65.4514 32.0964 66.4062C32.7908 67.6215 33.6046 68.533 34.5378 69.1406C35.4709 69.7483 36.4149 70.0521 37.3698 70.0521C38.3246 70.0521 39.1493 69.9761 39.8438 69.8242C40.5382 69.6723 41.1892 69.4661 41.7969 69.2057C42.1007 67.1658 42.8168 65.6684 43.9453 64.7135C41.8186 64.4531 39.9523 64.0516 38.3464 63.5091C36.7405 62.9666 35.1562 62.1202 33.5938 60.9701C32.0312 59.8199 30.8268 58.1706 29.9805 56.0221C29.1341 53.8737 28.7109 51.2804 28.7109 48.2422C28.7109 44.8134 29.8611 41.8403 32.1615 39.3229C31.1198 36.6319 31.2283 33.6806 32.487 30.4687C33.3116 30.2083 34.4944 30.3711 36.0352 30.957C37.576 31.543 38.8889 32.1832 39.974 32.8776L41.6667 33.9193C44.184 33.1814 46.9618 32.8125 50 32.8125C53.0382 32.8125 55.816 33.1814 58.3333 33.9193C58.8108 33.6155 59.4293 33.2248 60.1888 32.7474C60.9483 32.27 62.1528 31.7057 63.8021 31.0547C65.4514 30.4036 66.6884 30.2083 67.513 30.4687C68.7717 33.6806 68.8802 36.6319 67.8385 39.3229C70.1389 41.8403 71.2891 44.8134 71.2891 48.2422C71.2891 50.7161 70.9852 52.8971 70.3776 54.7852C69.77 56.6732 68.9996 58.1923 68.0664 59.3424C67.1332 60.4926 65.9722 61.4583 64.5833 62.2396C63.1944 63.0208 61.8381 63.5851 60.5143 63.9323C59.1905 64.2795 57.704 64.5399 56.0547 64.7135C57.5738 66.059 58.3333 68.1207 58.3333 70.8984C58.3333 72.6345 58.3225 74.566 58.3008 76.6927C58.2791 78.8194 58.2682 79.9262 58.2682 80.013C58.2682 80.5339 58.4527 80.9679 58.8216 81.3151C59.1905 81.6623 59.7656 81.7708 60.5469 81.6406C67.2309 79.3837 72.6997 75.3581 76.9531 69.5638C81.2066 63.7695 83.3333 57.2483 83.3333 50ZM100 18.75V81.25C100 86.4149 98.1662 90.8312 94.4987 94.4987C90.8312 98.1662 86.4149 100 81.25 100H18.75C13.5851 100 9.16884 98.1662 5.5013 94.4987C1.83377 90.8312 0 86.4149 0 81.25V18.75C0 13.5851 1.83377 9.16884 5.5013 5.5013C9.16884 1.83377 13.5851 0 18.75 0H81.25C86.4149 0 90.8312 1.83377 94.4987 5.5013C98.1662 9.16884 100 13.5851 100 18.75Z" fill="currentColor"/>
</g>

</svg>
